<mxfile host="app.diagrams.net" modified="2023-09-08T03:56:01.531Z" agent="Mozilla/5.0 (Macintosh; Intel Mac OS X 10_15_7) AppleWebKit/537.36 (KHTML, like Gecko) Chrome/116.0.0.0 Safari/537.36" etag="mAXpCGvEXZNi7bwR6JrF" version="21.7.2" type="device">
  <diagram id="prtHgNgQTEPvFCAcTncT" name="Page-1">
    <mxGraphModel dx="851" dy="750" grid="1" gridSize="10" guides="1" tooltips="1" connect="1" arrows="1" fold="1" page="1" pageScale="1" pageWidth="827" pageHeight="1169" math="0" shadow="0">
      <root>
        <mxCell id="0" />
        <mxCell id="1" parent="0" />
        <mxCell id="lau4edjOGtC9yjlNthrU-2" value="Code Repository" style="swimlane;fillColor=#fff2cc;strokeColor=#d6b656;" vertex="1" parent="1">
          <mxGeometry x="40" y="80" width="680" height="350" as="geometry">
            <mxRectangle x="90" y="80" width="140" height="30" as="alternateBounds" />
          </mxGeometry>
        </mxCell>
        <mxCell id="lau4edjOGtC9yjlNthrU-3" value="Workflow 1" style="swimlane;fillColor=#dae8fc;strokeColor=#6c8ebf;" vertex="1" parent="lau4edjOGtC9yjlNthrU-2">
          <mxGeometry x="20" y="50" width="200" height="270" as="geometry" />
        </mxCell>
        <mxCell id="lau4edjOGtC9yjlNthrU-6" value="Job 1" style="swimlane;whiteSpace=wrap;html=1;fillColor=#e1d5e7;strokeColor=#9673a6;" vertex="1" parent="lau4edjOGtC9yjlNthrU-3">
          <mxGeometry x="25" y="40" width="150" height="110" as="geometry" />
        </mxCell>
        <mxCell id="lau4edjOGtC9yjlNthrU-16" value="Step 1" style="shape=step;perimeter=stepPerimeter;whiteSpace=wrap;html=1;fixedSize=1;fillColor=#f5f5f5;fontColor=#333333;strokeColor=#666666;" vertex="1" parent="lau4edjOGtC9yjlNthrU-6">
          <mxGeometry x="15" y="30" width="120" height="30" as="geometry" />
        </mxCell>
        <mxCell id="lau4edjOGtC9yjlNthrU-17" value="Step 2" style="shape=step;perimeter=stepPerimeter;whiteSpace=wrap;html=1;fixedSize=1;fillColor=#f5f5f5;fontColor=#333333;strokeColor=#666666;" vertex="1" parent="lau4edjOGtC9yjlNthrU-6">
          <mxGeometry x="15" y="70" width="120" height="30" as="geometry" />
        </mxCell>
        <mxCell id="lau4edjOGtC9yjlNthrU-12" value="Job 2" style="swimlane;whiteSpace=wrap;html=1;fillColor=#e1d5e7;strokeColor=#9673a6;" vertex="1" parent="lau4edjOGtC9yjlNthrU-3">
          <mxGeometry x="25" y="170" width="150" height="70" as="geometry" />
        </mxCell>
        <mxCell id="lau4edjOGtC9yjlNthrU-19" value="Step 1" style="shape=step;perimeter=stepPerimeter;whiteSpace=wrap;html=1;fixedSize=1;fillColor=#f5f5f5;fontColor=#333333;strokeColor=#666666;" vertex="1" parent="lau4edjOGtC9yjlNthrU-12">
          <mxGeometry x="15" y="30" width="120" height="30" as="geometry" />
        </mxCell>
        <mxCell id="lau4edjOGtC9yjlNthrU-4" value="Workflow 2" style="swimlane;fillColor=#dae8fc;strokeColor=#6c8ebf;" vertex="1" parent="lau4edjOGtC9yjlNthrU-2">
          <mxGeometry x="240" y="50" width="200" height="270" as="geometry" />
        </mxCell>
        <mxCell id="lau4edjOGtC9yjlNthrU-22" value="Job 1" style="swimlane;whiteSpace=wrap;html=1;fillColor=#e1d5e7;strokeColor=#9673a6;" vertex="1" parent="lau4edjOGtC9yjlNthrU-4">
          <mxGeometry x="25" y="40" width="150" height="200" as="geometry" />
        </mxCell>
        <mxCell id="lau4edjOGtC9yjlNthrU-23" value="Step 1" style="shape=step;perimeter=stepPerimeter;whiteSpace=wrap;html=1;fixedSize=1;fillColor=#f5f5f5;fontColor=#333333;strokeColor=#666666;" vertex="1" parent="lau4edjOGtC9yjlNthrU-22">
          <mxGeometry x="15" y="30" width="120" height="30" as="geometry" />
        </mxCell>
        <mxCell id="lau4edjOGtC9yjlNthrU-24" value="Step 2" style="shape=step;perimeter=stepPerimeter;whiteSpace=wrap;html=1;fixedSize=1;fillColor=#f5f5f5;fontColor=#333333;strokeColor=#666666;" vertex="1" parent="lau4edjOGtC9yjlNthrU-22">
          <mxGeometry x="15" y="70" width="120" height="30" as="geometry" />
        </mxCell>
        <mxCell id="lau4edjOGtC9yjlNthrU-25" value="Step 3" style="shape=step;perimeter=stepPerimeter;whiteSpace=wrap;html=1;fixedSize=1;fillColor=#f5f5f5;fontColor=#333333;strokeColor=#666666;" vertex="1" parent="lau4edjOGtC9yjlNthrU-22">
          <mxGeometry x="15" y="110" width="120" height="30" as="geometry" />
        </mxCell>
        <mxCell id="lau4edjOGtC9yjlNthrU-26" value="Step 4" style="shape=step;perimeter=stepPerimeter;whiteSpace=wrap;html=1;fixedSize=1;fillColor=#f5f5f5;fontColor=#333333;strokeColor=#666666;" vertex="1" parent="lau4edjOGtC9yjlNthrU-22">
          <mxGeometry x="15" y="150" width="120" height="30" as="geometry" />
        </mxCell>
        <mxCell id="lau4edjOGtC9yjlNthrU-5" value="Workflow 3" style="swimlane;fillColor=#dae8fc;strokeColor=#6c8ebf;" vertex="1" parent="lau4edjOGtC9yjlNthrU-2">
          <mxGeometry x="460" y="50" width="200" height="270" as="geometry" />
        </mxCell>
        <mxCell id="lau4edjOGtC9yjlNthrU-27" value="Job 2" style="swimlane;whiteSpace=wrap;html=1;fillColor=#e1d5e7;strokeColor=#9673a6;" vertex="1" parent="lau4edjOGtC9yjlNthrU-5">
          <mxGeometry x="25" y="170" width="150" height="70" as="geometry" />
        </mxCell>
        <mxCell id="lau4edjOGtC9yjlNthrU-28" value="Step 1" style="shape=step;perimeter=stepPerimeter;whiteSpace=wrap;html=1;fixedSize=1;fillColor=#f5f5f5;fontColor=#333333;strokeColor=#666666;" vertex="1" parent="lau4edjOGtC9yjlNthrU-27">
          <mxGeometry x="15" y="30" width="120" height="30" as="geometry" />
        </mxCell>
        <mxCell id="lau4edjOGtC9yjlNthrU-29" value="Job 1" style="swimlane;whiteSpace=wrap;html=1;fillColor=#e1d5e7;strokeColor=#9673a6;" vertex="1" parent="lau4edjOGtC9yjlNthrU-5">
          <mxGeometry x="25" y="40" width="150" height="70" as="geometry" />
        </mxCell>
        <mxCell id="lau4edjOGtC9yjlNthrU-30" value="Step 1" style="shape=step;perimeter=stepPerimeter;whiteSpace=wrap;html=1;fixedSize=1;fillColor=#f5f5f5;fontColor=#333333;strokeColor=#666666;" vertex="1" parent="lau4edjOGtC9yjlNthrU-29">
          <mxGeometry x="15" y="30" width="120" height="30" as="geometry" />
        </mxCell>
      </root>
    </mxGraphModel>
  </diagram>
</mxfile>
